<svg id="Calque_1" data-name="Calque 1" xmlns="http://www.w3.org/2000/svg" xmlns:xlink="http://www.w3.org/1999/xlink" viewBox="0 0 499 604"><defs><style>.cls-1{fill:url(#Dégradé_sans_nom_2);}.cls-2{fill:#fff;}</style><linearGradient id="Dégradé_sans_nom_2" x1="86" y1="291.5" x2="429" y2="291.5" gradientUnits="userSpaceOnUse"><stop offset="0" stop-color="#003cff"/><stop offset="1" stop-color="#007aff" stop-opacity="0.87"/></linearGradient></defs><title>club</title><rect class="cls-1" x="86" y="145" width="343" height="293"/><path class="cls-2" d="M156.57,294.24a31.13,31.13,0,0,1-14.86-3.42,24.46,24.46,0,0,1-9.93-9.56A28.17,28.17,0,0,1,128.25,267h17.1q0,5.56,3.1,8.76T157,279a13.29,13.29,0,0,0,6.74-1.6,11,11,0,0,0,4.32-4.6,17.38,17.38,0,0,0,.11-14.1,10.24,10.24,0,0,0-4.17-4.44,13.33,13.33,0,0,0-6.68-1.55,14.59,14.59,0,0,0-7.26,1.87,11.73,11.73,0,0,0-4.81,4.76l-15.81-3,9.93-42.42h43v16H148.55l4.38-4.27-5.45,20.41-5.77,3.31a16.09,16.09,0,0,1,7.32-8.12,24.83,24.83,0,0,1,12.24-2.88,27.86,27.86,0,0,1,13.57,3.2,23.07,23.07,0,0,1,9.19,9.08,27.84,27.84,0,0,1,3.31,13.9,30.24,30.24,0,0,1-3.9,15.54,27.32,27.32,0,0,1-10.79,10.42A33.27,33.27,0,0,1,156.57,294.24Z"/><path class="cls-2" d="M215.55,213.89V293H198.24V213.89Zm14.75,52.78h-19V251.29h15.17q6.3,0,9.4-2.73t3.1-8.28c0-3.7-1-6.47-3.1-8.28s-5.2-2.73-9.4-2.73H211.28V213.89h19a28.93,28.93,0,0,1,14.15,3.31,23.76,23.76,0,0,1,9.41,9.24,30.18,30.18,0,0,1,0,27.68,23.76,23.76,0,0,1-9.41,9.24A28.93,28.93,0,0,1,230.3,266.67Z"/><path class="cls-2" d="M263.74,236.86a22,22,0,0,1,3.74-12.66,25.43,25.43,0,0,1,10.31-8.66,34.34,34.34,0,0,1,15-3.15,33.68,33.68,0,0,1,14.74,3,22.46,22.46,0,0,1,9.57,8.44,24.18,24.18,0,0,1,3.36,12.93h-17.2a8.07,8.07,0,0,0-2.89-6.57,11.81,11.81,0,0,0-7.8-2.4A14.23,14.23,0,0,0,284.2,230a7.2,7.2,0,0,0-3.15,6.2,7.56,7.56,0,0,0,1.92,5.56,11.93,11.93,0,0,0,6.1,2.77L300.93,247q10.57,2.15,15.7,7.43t5.13,14.69a23.68,23.68,0,0,1-3.74,13.3,24.23,24.23,0,0,1-10.52,8.82,38,38,0,0,1-15.87,3.1,36.75,36.75,0,0,1-15.33-3A22.38,22.38,0,0,1,262.57,270h17.2a7.83,7.83,0,0,0,3.1,6.63Q286,279,291.74,279t9.29-2.19a6.74,6.74,0,0,0,3.42-5.93,7.36,7.36,0,0,0-1.65-5.13q-1.67-1.81-5.61-2.56l-12.08-2.46q-10.58-2.15-16-8.12T263.74,236.86Z"/><path class="cls-2" d="M350.51,213.89V293H333.2V213.89ZM336.29,293v-16h45.42v16Z"/><path class="cls-2" d="M161.69,377.55a36.29,36.29,0,0,1-18.36-4.45,30,30,0,0,1-12-12.62q-4.22-8.18-4.21-19.36a40.28,40.28,0,0,1,4.4-19.32A31.45,31.45,0,0,1,143.9,309a36.48,36.48,0,0,1,18.46-4.55,37.22,37.22,0,0,1,15.82,3.21,29.25,29.25,0,0,1,11.33,9A28.71,28.71,0,0,1,195,330.5H178.61a14.11,14.11,0,0,0-5.88-8.22A19.16,19.16,0,0,0,162,319.41a18.38,18.38,0,0,0-9.89,2.58,16.43,16.43,0,0,0-6.36,7.41,27.82,27.82,0,0,0-2.2,11.62,27.14,27.14,0,0,0,2.25,11.47,17,17,0,0,0,6.4,7.51,18,18,0,0,0,9.8,2.63,19.53,19.53,0,0,0,11.05-3,14.07,14.07,0,0,0,6-8.27h16.07a29.8,29.8,0,0,1-17.4,22.94A37.79,37.79,0,0,1,161.69,377.55Z"/><path class="cls-2" d="M220.87,305.64V376.4H205.38V305.64ZM208.16,376.4V362.06h40.63V376.4Z"/><path class="cls-2" d="M255.2,349.82V305.64h15.49v43.12q0,6.71,3.54,10.24t10,3.53q6.6,0,10.18-3.63T298,348.76V305.64h15.49v44.18a28.79,28.79,0,0,1-3.59,14.63,24.57,24.57,0,0,1-10.18,9.65,36.42,36.42,0,0,1-30.84,0,24.27,24.27,0,0,1-10.13-9.66A29,29,0,0,1,255.2,349.82Z"/><path class="cls-2" d="M343.27,305.64V376.4H327.78V305.64Zm13.1,42H338.29v-13H355.6c2.81,0,4.94-.67,6.41-2a7.5,7.5,0,0,0,2.2-5.83,7.11,7.11,0,0,0-2.2-5.64c-1.47-1.27-3.6-1.91-6.41-1.91H339.35V305.64h17.88q10.71,0,16.78,5.26t6.07,14.34A17.67,17.67,0,0,1,377,335.76a16.5,16.5,0,0,1-8.89,6.12v-1.34a15.79,15.79,0,0,1,9.51,5.55,17,17,0,0,1,3.3,10.8,19.85,19.85,0,0,1-2.72,10.62,16.89,16.89,0,0,1-8,6.64,33.12,33.12,0,0,1-12.95,2.25H339.35V362.82h17c2.87,0,5-.65,6.5-2s2.2-3.27,2.2-5.88a6.73,6.73,0,0,0-2.25-5.5A9.88,9.88,0,0,0,356.37,347.62Z"/></svg>