<svg id="Calque_1" data-name="Calque 1" xmlns="http://www.w3.org/2000/svg" xmlns:xlink="http://www.w3.org/1999/xlink" viewBox="0 0 500 145"><defs><style>.cls-1{fill:url(#Dégradé_sans_nom_2);}.cls-2{fill:#fff;}</style><linearGradient id="Dégradé_sans_nom_2" y1="72.5" x2="500" y2="72.5" gradientUnits="userSpaceOnUse"><stop offset="0" stop-color="#003cff"/><stop offset="1" stop-color="#007aff" stop-opacity="0.87"/></linearGradient></defs><title>stick1</title><rect class="cls-1" width="500" height="145"/><path class="cls-2" d="M150.57,115.24a31.13,31.13,0,0,1-14.86-3.42,24.46,24.46,0,0,1-9.93-9.56A28.17,28.17,0,0,1,122.25,88h17.1q0,5.57,3.1,8.76T151,100a13.29,13.29,0,0,0,6.74-1.6,11,11,0,0,0,4.32-4.6,17.38,17.38,0,0,0,.11-14.1A10.24,10.24,0,0,0,158,75.22a13.33,13.33,0,0,0-6.68-1.55,14.59,14.59,0,0,0-7.26,1.87,11.73,11.73,0,0,0-4.81,4.76l-15.81-3,9.93-42.42h43v16H142.55l4.38-4.27-5.45,20.41-5.77,3.31A16.09,16.09,0,0,1,143,62.24a24.83,24.83,0,0,1,12.24-2.88,27.86,27.86,0,0,1,13.57,3.2A23.07,23.07,0,0,1,178,71.64a27.84,27.84,0,0,1,3.31,13.9,30.24,30.24,0,0,1-3.9,15.54,27.32,27.32,0,0,1-10.79,10.42A33.27,33.27,0,0,1,150.57,115.24Z"/><path class="cls-2" d="M209.55,34.89V114H192.24V34.89ZM224.3,87.67h-19V72.29h15.17q6.3,0,9.4-2.73t3.1-8.28c0-3.7-1-6.47-3.1-8.28s-5.2-2.73-9.4-2.73H205.28V34.89h19a28.93,28.93,0,0,1,14.15,3.31,23.76,23.76,0,0,1,9.41,9.24,27.6,27.6,0,0,1,3.36,13.84,27.62,27.62,0,0,1-3.36,13.84,23.76,23.76,0,0,1-9.41,9.24A28.93,28.93,0,0,1,224.3,87.67Z"/><path class="cls-2" d="M257.74,57.86a22,22,0,0,1,3.74-12.66,25.43,25.43,0,0,1,10.31-8.66,34.34,34.34,0,0,1,15-3.15,33.68,33.68,0,0,1,14.74,3,22.46,22.46,0,0,1,9.57,8.44,24.18,24.18,0,0,1,3.36,12.93h-17.2a8.07,8.07,0,0,0-2.89-6.57,11.81,11.81,0,0,0-7.8-2.4A14.23,14.23,0,0,0,278.2,51a7.2,7.2,0,0,0-3.15,6.2A7.56,7.56,0,0,0,277,62.78a11.93,11.93,0,0,0,6.1,2.77L294.93,68q10.57,2.14,15.7,7.43t5.13,14.69a23.68,23.68,0,0,1-3.74,13.3,24.23,24.23,0,0,1-10.52,8.82,38,38,0,0,1-15.87,3.1,36.75,36.75,0,0,1-15.33-3A22.38,22.38,0,0,1,256.57,91h17.2a7.83,7.83,0,0,0,3.1,6.63Q280,100,285.74,100T295,97.77a6.74,6.74,0,0,0,3.42-5.93,7.36,7.36,0,0,0-1.65-5.13q-1.67-1.81-5.61-2.56l-12.08-2.46q-10.58-2.14-16-8.12T257.74,57.86Z"/><path class="cls-2" d="M344.51,34.89V114H327.2V34.89ZM330.29,114v-16h45.42v16Z"/></svg>