<svg id="Calque_1" data-name="Calque 1" xmlns="http://www.w3.org/2000/svg" xmlns:xlink="http://www.w3.org/1999/xlink" viewBox="0 0 503 500"><defs><style>.cls-1{fill:url(#Dégradé_sans_nom_2);}.cls-2{fill:#fff;}</style><linearGradient id="Dégradé_sans_nom_2" x1="128" y1="250" x2="376" y2="250" gradientUnits="userSpaceOnUse"><stop offset="0" stop-color="#003cff"/><stop offset="1" stop-color="#007aff" stop-opacity="0.87"/></linearGradient></defs><title>logovertical</title><rect class="cls-1" x="128" y="92" width="248" height="316"/><path class="cls-2" d="M216,250a33.32,33.32,0,0,1-15.91-3.66,26.3,26.3,0,0,1-10.65-10.25,30.14,30.14,0,0,1-3.78-15.28H204q0,6,3.32,9.38t9.16,3.44a14.17,14.17,0,0,0,7.21-1.72,11.8,11.8,0,0,0,4.64-4.92,18.59,18.59,0,0,0,.11-15.11,11,11,0,0,0-4.46-4.75,14.28,14.28,0,0,0-7.16-1.66,15.6,15.6,0,0,0-7.78,2,12.49,12.49,0,0,0-5.16,5.1l-16.94-3.21,10.65-45.45h46V181H207.41l4.7-4.58-5.84,21.87-6.18,3.55a17.17,17.17,0,0,1,7.84-8.7A26.53,26.53,0,0,1,221,190.09a29.9,29.9,0,0,1,14.54,3.43,24.76,24.76,0,0,1,9.84,9.73A29.79,29.79,0,0,1,249,218.13a32.38,32.38,0,0,1-4.18,16.66A29.34,29.34,0,0,1,233.23,246,35.59,35.59,0,0,1,216,250Z"/><path class="cls-2" d="M279.19,163.87v84.72H260.64V163.87ZM295,220.42H274.61V203.94h16.26q6.75,0,10.07-2.92t3.32-8.87q0-6-3.32-8.87t-10.07-2.92H274.61V163.87H295a31.14,31.14,0,0,1,15.17,3.55,25.44,25.44,0,0,1,10.07,9.9,32.25,32.25,0,0,1,0,29.65,25.4,25.4,0,0,1-10.07,9.91A31.14,31.14,0,0,1,295,220.42Z"/><path class="cls-2" d="M192.21,282.58a23.55,23.55,0,0,1,4-13.56,27.39,27.39,0,0,1,11-9.28,36.73,36.73,0,0,1,16.08-3.37,36.12,36.12,0,0,1,15.8,3.2,24,24,0,0,1,10.25,9.05,25.86,25.86,0,0,1,3.6,13.85H234.56a8.66,8.66,0,0,0-3.09-7,12.63,12.63,0,0,0-8.35-2.58q-5.61,0-9,2.41a7.7,7.7,0,0,0-3.38,6.64,8.09,8.09,0,0,0,2.06,6c1.38,1.37,3.55,2.36,6.53,3l12.7,2.63q11.34,2.3,16.83,8t5.5,15.75a25.43,25.43,0,0,1-4,14.25,26,26,0,0,1-11.28,9.44,40.6,40.6,0,0,1-17,3.32,39.4,39.4,0,0,1-16.42-3.2A24,24,0,0,1,191,318.07h18.43a8.38,8.38,0,0,0,3.32,7.1q3.31,2.52,9.5,2.52t10-2.35a7.21,7.21,0,0,0,3.66-6.35,7.89,7.89,0,0,0-1.77-5.5c-1.19-1.3-3.19-2.21-6-2.75l-12.94-2.63q-11.32-2.3-17.11-8.7T192.21,282.58Z"/><path class="cls-2" d="M285.16,258v84.71H266.62V258Zm-15.22,84.71V325.51h48.65v17.17Z"/></svg>