<svg id="Calque_1" data-name="Calque 1" xmlns="http://www.w3.org/2000/svg" xmlns:xlink="http://www.w3.org/1999/xlink" viewBox="0 0 500 500"><defs><style>.cls-1{fill:url(#Dégradé_sans_nom_2);}.cls-2{fill:#fff;}</style><linearGradient id="Dégradé_sans_nom_2" x1="61" y1="239.5" x2="433" y2="239.5" gradientUnits="userSpaceOnUse"><stop offset="0" stop-color="#003cff"/><stop offset="1" stop-color="#007aff" stop-opacity="0.87"/></linearGradient></defs><title>logo</title><rect class="cls-1" x="61" y="166" width="372" height="147"/><path class="cls-2" d="M115.67,294.43a42.24,42.24,0,0,1-20.16-4.64,33.27,33.27,0,0,1-13.5-13,38.25,38.25,0,0,1-4.79-19.37h23.22q0,7.54,4.21,11.9t11.6,4.35a18,18,0,0,0,9.14-2.18,14.9,14.9,0,0,0,5.88-6.24,23.66,23.66,0,0,0,.15-19.15,14,14,0,0,0-5.66-6,18.13,18.13,0,0,0-9.07-2.1,19.77,19.77,0,0,0-9.87,2.54,15.85,15.85,0,0,0-6.53,6.45l-21.47-4.06,13.49-57.6h58.33v21.76H104.79l5.95-5.8L103.34,229l-7.83,4.5a21.77,21.77,0,0,1,9.93-11,33.64,33.64,0,0,1,16.62-3.91,37.87,37.87,0,0,1,18.42,4.35A31.23,31.23,0,0,1,153,235.23a37.79,37.79,0,0,1,4.5,18.86,41.08,41.08,0,0,1-5.3,21.11,37.14,37.14,0,0,1-14.65,14.15A45.16,45.16,0,0,1,115.67,294.43Z"/><path class="cls-2" d="M195.76,185.32V292.69h-23.5V185.32Zm20,71.67H190V236.1h20.6q8.56,0,12.77-3.7t4.21-11.24q0-7.54-4.21-11.25t-12.77-3.7H190V185.32h25.82a39.37,39.37,0,0,1,19.23,4.5,32.25,32.25,0,0,1,12.77,12.55,40.91,40.91,0,0,1,0,37.58A32.32,32.32,0,0,1,235,252.5,39.37,39.37,0,0,1,215.78,257Z"/><path class="cls-2" d="M261.2,216.51a29.9,29.9,0,0,1,5.07-17.19,34.6,34.6,0,0,1,14-11.75,46.58,46.58,0,0,1,20.38-4.28q11.61,0,20,4.06a30.4,30.4,0,0,1,13,11.46,32.84,32.84,0,0,1,4.57,17.56H314.88a11,11,0,0,0-3.92-8.92q-3.91-3.27-10.59-3.27-7.11,0-11.39,3a9.77,9.77,0,0,0-4.28,8.41q0,4.94,2.61,7.55t8.27,3.77l16.11,3.34Q326,233.2,333,240.38t7,19.95a32.24,32.24,0,0,1-5.08,18.07,33.05,33.05,0,0,1-14.29,12q-9.21,4.2-21.55,4.2a49.8,49.8,0,0,1-20.82-4.06,30.41,30.41,0,0,1-18.64-29H283a10.63,10.63,0,0,0,4.21,9q4.2,3.19,12,3.19t12.62-3a9.15,9.15,0,0,0,4.64-8.06,10,10,0,0,0-2.24-7q-2.25-2.48-7.62-3.48l-16.4-3.34q-14.35-2.9-21.69-11T261.2,216.51Z"/><path class="cls-2" d="M379,185.32V292.69H355.5V185.32Zm-19.3,107.37V270.92h61.66v21.77Z"/></svg>